<svg viewBox="0 0 496 496" fill="currentColor" xmlns="http://www.w3.org/2000/svg">
<path d="M300.616 248.008L459.589 89.0348L492.373 56.2513C497.209 51.4151 497.209 43.5564 492.373 38.7202L457.295 3.64262C452.459 -1.19353 444.6 -1.19353 439.764 3.64262L248.008 195.399L56.2513 3.62711C51.4151 -1.20904 43.5564 -1.20904 38.7202 3.62711L3.62711 38.7047C-1.20904 43.5409 -1.20904 51.3996 3.62711 56.2358L195.399 248.008L3.62711 439.764C-1.20904 444.6 -1.20904 452.459 3.62711 457.295L38.7047 492.373C43.5409 497.209 51.3996 497.209 56.2358 492.373L248.008 300.616L406.981 459.589L439.764 492.373C444.6 497.209 452.459 497.209 457.295 492.373L492.373 457.295C497.209 452.459 497.209 444.6 492.373 439.764L300.616 248.008Z"/>
</svg>
